Coordinates
version=1
nRows=21
nColumns=22
inDegrees=yes

Units are S.I. units (second, meters, Newtons, ...)
If the header above contains a line with 'inDegrees', this indicates whether rotational values are in degrees (yes) or radians (no).

endheader
time	pelvis_tilt	pelvis_list	pelvis_rotation	pelvis_tx	pelvis_ty	pelvis_tz	hip_flexion_r	hip_adduction_r	hip_rotation_r	knee_angle_r	ankle_angle_r	subtalar_angle_r	hip_flexion_l	hip_adduction_l	hip_rotation_l	knee_angle_l	ankle_angle_l	subtalar_angle_l	lumbar_extension	lumbar_bending	lumbar_rotation
      2.60000000	     -8.66722690	     -0.67667634	    -44.23523354	     -0.22930684	      0.84280460	      0.07470626	    -10.61021529	      4.01905161	     10.90723168	    -11.01760565	     22.74981715	     -2.34342756	     36.65717540	    -16.44840249	     -3.68789754	     -7.57682263	      6.82605459	      8.75355561	     -4.59942384	      4.35136262	     27.53082335
      2.61000000	     -8.55687858	     -0.76907166	    -44.60828491	     -0.21882565	      0.84136435	      0.08025113	    -11.15342530	      3.66965057	     11.39599978	    -11.79782097	     22.58084062	     -1.83057832	     36.74202390	    -16.53253160	     -3.78817757	     -8.46528251	      6.98268711	      8.50959037	     -4.84180688	      4.21827593	     27.69709022
      2.62000000	     -8.43722346	     -0.83518774	    -44.98423833	     -0.20812542	      0.84001241	      0.08589734	    -11.65338836	      3.29135525	     11.87040308	    -12.64149407	     22.31279430	     -1.27478283	     36.80554053	    -16.58490141	     -3.84557383	     -9.70736028	      7.10498599	      8.10110447	     -5.06191852	      4.03784276	     27.85978612
      2.63000000	     -8.32015533	     -0.86438252	    -45.34629824	     -0.19715582	      0.83872151	      0.09157315	    -12.08342745	      2.88187172	     12.27886704	    -13.55934151	     21.93081464	     -0.61492094	     36.85052833	    -16.58250430	     -3.83841521	    -11.19590047	      7.16309501	      7.61611792	     -5.23991182	      3.82399961	     27.99498593
      2.64000000	     -8.23931171	     -0.84827907	    -45.73513957	     -0.18602411	      0.83748796	      0.09735527	    -12.41916819	      2.46292037	     12.74393778	    -14.53034693	     21.43541031	      0.03194418	     36.88876076	    -16.56950897	     -3.82791997	    -12.82802983	      7.04633564	      7.24590580	     -5.34168186	      3.58773054	     28.15855695
      2.65000000	     -8.18102541	     -0.78165437	    -46.10448621	     -0.17466426	      0.83631608	      0.10315259	    -12.64161928	      2.02727329	     13.16409891	    -15.59642426	     20.80288045	      0.78989637	     36.92509522	    -16.49758023	     -3.77834292	    -14.52278981	      6.78951885	      7.00363160	     -5.37199070	      3.32493235	     28.27130873
      2.66000000	     -8.13669366	     -0.65526516	    -46.44172380	     -0.16307371	      0.83523971	      0.10894974	    -12.74558940	      1.56741132	     13.53867813	    -16.75874054	     19.97962908	      1.67862536	     36.96614806	    -16.34809091	     -3.69475839	    -16.21020714	      6.37393351	      6.96104796	     -5.32832358	      3.02416011	     28.32042133
      2.67000000	     -8.09959067	     -0.47980793	    -46.75470994	     -0.15131854	      0.83430852	      0.11472874	    -12.71871369	      1.09702357	     13.90016537	    -18.05230558	     18.98216621	      2.58791324	     37.02693068	    -16.13610479	     -3.60821189	    -17.86761688	      5.75944587	      7.13779248	     -5.23167349	      2.69045467	     28.32175373
      2.68000000	     -8.04216788	     -0.24572509	    -47.02392072	     -0.13939941	      0.83355351	      0.12047902	    -12.54731573	      0.60119307	     14.19979209	    -19.52115443	     17.81123064	      3.50496893	     37.12214694	    -15.83366782	     -3.52972562	    -19.49783496	      4.98607988	      7.47137318	     -5.09421809	      2.29330332	     28.25766418
      2.69000000	     -7.92752603	     -0.00880247	    -47.19272240	     -0.12721651	      0.83310295	      0.12618739	    -12.31833109	      0.10353691	     14.38973975	    -21.13090388	     16.30722668	      4.61754430	     37.18916128	    -15.41457773	     -3.37044222	    -21.07415140	      4.20932089	      7.92584107	     -4.98401055	      1.85356011	     28.03668359
      2.70000000	     -7.74265329	      0.25424161	    -47.27976834	     -0.11484414	      0.83292625	      0.13187548	    -11.96372639	     -0.41248490	     14.42916941	    -22.98442529	     14.57038345	      5.67384476	     37.25475762	    -14.87652473	     -3.20080940	    -22.66106648	      3.48896155	      8.32134618	     -4.89438899	      1.33909337	     27.70942453
      2.71000000	     -7.47015155	      0.51344628	    -47.26407652	     -0.10226290	      0.83307283	      0.13755418	    -11.50856981	     -0.93619379	     14.27004087	    -25.08904696	     12.53387033	      6.70566062	     37.26842706	    -14.21194817	     -2.99383712	    -24.25562290	      2.95543751	      8.55220861	     -4.86003796	      0.76196738	     27.25159680
      2.72000000	     -7.11199522	      0.75931774	    -47.14715823	     -0.08950719	      0.83353140	      0.14323901	    -10.93255149	     -1.46450780	     13.88155520	    -27.47261008	     10.20010467	      7.62624033	     37.20164547	    -13.42898203	     -2.75467391	    -25.84570389	      2.70079708	      8.53311154	     -4.88648712	      0.13379335	     26.67645450
      2.73000000	     -6.66877314	      0.97576359	    -46.92090377	     -0.07662652	      0.83430481	      0.14888425	    -10.23033412	     -1.99989207	     13.22580420	    -30.13724210	      7.59189563	      8.24615594	     37.02042089	    -12.53164563	     -2.47420716	    -27.38959211	      2.67907192	      8.31954339	     -4.99410100	     -0.52654525	     25.98548780
      2.74000000	     -6.19409701	      1.17985876	    -46.64190645	     -0.06373629	      0.83529099	      0.15450778	     -9.32315168	     -2.53888690	     12.40480570	    -33.08786974	      4.73712658	      8.81033541	     36.74492096	    -11.58398411	     -2.21035080	    -28.85502130	      2.98530349	      7.85929613	     -5.12678192	     -1.18354720	     25.25340657
      2.75000000	     -5.71274248	      1.37500403	    -46.34365343	     -0.05093867	      0.83641224	      0.16005383	     -8.17510005	     -3.09187408	     11.47226332	    -36.31269647	      1.74387741	      9.19028867	     36.38697930	    -10.62543253	     -2.01453397	    -30.22549577	      3.60980360	      7.05960961	     -5.27069350	     -1.81115817	     24.51978607
      2.76000000	     -5.23925895	      1.57100489	    -46.03558241	     -0.03834220	      0.83764618	      0.16542009	     -6.76281825	     -3.67620599	     10.45384327	    -39.77840937	     -1.32553806	      9.14204106	     35.92195422	     -9.64697436	     -1.80022222	    -31.39555363	      4.37543711	      6.20801140	     -5.42003582	     -2.40229015	     23.81771176
      2.77000000	     -4.79109260	      1.80499989	    -45.74376397	     -0.02597251	      0.83884382	      0.17057626	     -5.06713554	     -4.33711728	      9.40387335	    -43.42936606	     -4.27498111	      8.86400202	     35.41610885	     -8.67172382	     -1.69055072	    -32.41857769	      5.31822949	      5.50202347	     -5.52902413	     -2.96298323	     23.14104994
      2.78000000	     -4.41305111	      2.03454034	    -45.52728827	     -0.01397605	      0.84009150	      0.17554604	     -3.12292942	     -4.98470831	      8.50394126	    -47.14584227	     -7.09597036	      8.27600551	     34.83002840	     -7.77883857	     -1.62833198	    -33.20627927	      6.34333675	      4.62447030	     -5.60209979	     -3.43145985	     22.60479927
      2.79000000	     -4.08731952	      2.28560367	    -45.36958664	     -0.00230423	      0.84133839	      0.18031972	     -0.97952905	     -5.65022520	      7.74736549	    -50.83589030	     -9.52081328	      7.74661445	     34.19701587	     -6.94887772	     -1.68713932	    -33.80055445	      7.41438171	      3.93124087	     -5.62747805	     -3.83827224	     22.13741761
      2.80000000	     -3.82858150	      2.52892088	    -45.27633174	      0.00902599	      0.84265899	      0.18493163	      1.29738472	     -6.25256532	      7.20840905	    -54.39116297	    -11.41308073	      7.31901906	     33.50739855	     -6.21324729	     -1.83307279	    -34.19300831	      8.47415759	      3.31806662	     -5.61632066	     -4.15367432	     21.75423701
